<svg viewBox="0 0 64 64" xmlns="http://www.w3.org/2000/svg">
  <!-- Background -->
  <rect x="0" y="0" width="64" height="64" fill="#1A365D" rx="8"/>

  <!-- Visible stack frames with content indicators -->
  <rect x="8" y="12" width="48" height="6" fill="#4A90E2" rx="2"/>
<!--  <rect x="12" y="14" width="20" height="2" fill="#ffffff" opacity="0.8" rx="0.5"/>-->

  <rect x="8" y="22" width="48" height="6" fill="#357ABD" rx="2"/>
<!--  <rect x="12" y="24" width="24" height="2" fill="#ffffff" opacity="0.8" rx="0.5"/>-->

  <!-- Hidden frames - ghosted with fading content -->
  <rect x="8" y="32" width="48" height="6" fill="#2A4A6B" fill-opacity="0.6" rx="2"/>
  <rect x="12" y="34" width="18" height="2" fill="#ffffff" opacity="0.12" rx="0.5"/>
  <rect x="32" y="34" width="8" height="2" fill="#ffffff" opacity="0.12" rx="0.5"/>
  <rect x="42" y="34" width="10" height="2" fill="#ffffff" opacity="0.12" rx="0.5"/>

  <rect x="8" y="42" width="48" height="6" fill="#2A4A6B" fill-opacity="0.6" rx="2"/>
  <rect x="12" y="44" width="22" height="2" fill="#ffffff" opacity="0.12" rx="0.5"/>
  <rect x="36" y="44" width="6" height="2" fill="#ffffff" opacity="0.12" rx="0.5"/>
  <rect x="44" y="44" width="8" height="2" fill="#ffffff" opacity="0.12" rx="0.5"/>

  <!-- Bottom visible frame -->
  <rect x="8" y="52" width="48" height="6" fill="#4A90E2" rx="2"/>
<!--  <rect x="12" y="54" width="16" height="2" fill="#ffffff" opacity="0.8" rx="0.5"/>-->
</svg>